<svg id="artwork" height="512" viewBox="0 0 64 64" width="512" xmlns="http://www.w3.org/2000/svg"><path d="m38 37.5h-1.5v-13.36377h1.5a1.501 1.501 0 0 0 1.00879-2.60986l-15-13.63623a1.4986 1.4986 0 0 0 -2.01758 0l-15 13.63623a1.50106 1.50106 0 0 0 1.00879 2.60986h1.5v13.36377h-1.5a1.5 1.5 0 0 0 0 3h30a1.5 1.5 0 0 0 0-3zm-15-23.68182a3 3 0 1 1 -3 3 3 3 0 0 1 3-3zm3.5 23.68182v-7.36377h-7v7.36377h-3v-8.86377a1.50008 1.50008 0 0 1 1.5-1.5h10a1.50008 1.50008 0 0 1 1.5 1.5v8.86377z" fill="#3e3ef4"/><path d="m60 1.5h-56a3.50424 3.50424 0 0 0 -3.5 3.5v45a3.50424 3.50424 0 0 0 3.5 3.5h17.5v6h-4.5a1.5 1.5 0 0 0 0 3h30a1.5 1.5 0 0 0 0-3h-4.5v-6h17.5a3.50424 3.50424 0 0 0 3.5-3.5v-45a3.50424 3.50424 0 0 0 -3.5-3.5zm-20.5 58h-15v-6h15zm21-9.5a.50065.50065 0 0 1 -.5.5h-56a.50065.50065 0 0 1 -.5-.5v-3.5h57zm0-6.5h-57v-38.5a.50065.50065 0 0 1 .5-.5h56a.50065.50065 0 0 1 .5.5z"/><path d="m56 25.5h-12a1.5 1.5 0 0 0 0 3h12a1.5 1.5 0 0 0 0-3z"/><path d="m56 13.5h-8a1.5 1.5 0 0 0 0 3h8a1.5 1.5 0 0 0 0-3z"/><path d="m56 19.5h-12a1.5 1.5 0 0 0 0 3h12a1.5 1.5 0 0 0 0-3z"/><path d="m56 31.5h-12a1.5 1.5 0 0 0 0 3h12a1.5 1.5 0 0 0 0-3z"/></svg>