<svg id="visual" viewBox="0 0 1300 100" width="1300" height="100" xmlns="http://www.w3.org/2000/svg" xmlns:xlink="http://www.w3.org/1999/xlink" version="1.1"><path d="M0 44L54.2 40.2C108.3 36.3 216.7 28.7 325 32.7C433.3 36.7 541.7 52.3 650 60.7C758.3 69 866.7 70 975 64.8C1083.3 59.7 1191.7 48.3 1245.8 42.7L1300 37L1300 101L1245.8 101C1191.7 101 1083.3 101 975 101C866.7 101 758.3 101 650 101C541.7 101 433.3 101 325 101C216.7 101 108.3 101 54.2 101L0 101Z" fill="#0741ad" stroke-linecap="round" stroke-linejoin="miter"></path></svg>