<?xml version="1.0" standalone="no"?>
<svg xmlns:xlink="http://www.w3.org/1999/xlink" id="wave" style="transform:rotate(0deg); transition: 0.3s" viewBox="0 0 1440 380" version="1.1" xmlns="http://www.w3.org/2000/svg"><defs><linearGradient id="sw-gradient-0" x1="0" x2="0" y1="1" y2="0"><stop stop-color="rgba(255, 255, 255, 1)" offset="0%"/><stop stop-color="rgba(7, 65, 173, 0.513)" offset="100%"/></linearGradient></defs><path style="transform:translate(0, 0px); opacity:1" fill="url(#sw-gradient-0)" d="M0,114L48,139.3C96,165,192,215,288,221.7C384,228,480,190,576,164.7C672,139,768,127,864,158.3C960,190,1056,266,1152,272.3C1248,279,1344,215,1440,171C1536,127,1632,101,1728,120.3C1824,139,1920,203,2016,228C2112,253,2208,241,2304,221.7C2400,203,2496,177,2592,152C2688,127,2784,101,2880,126.7C2976,152,3072,228,3168,228C3264,228,3360,152,3456,126.7C3552,101,3648,127,3744,139.3C3840,152,3936,152,4032,171C4128,190,4224,228,4320,202.7C4416,177,4512,89,4608,88.7C4704,89,4800,177,4896,234.3C4992,291,5088,317,5184,304C5280,291,5376,241,5472,209C5568,177,5664,165,5760,145.7C5856,127,5952,101,6048,95C6144,89,6240,101,6336,139.3C6432,177,6528,241,6624,278.7C6720,317,6816,329,6864,335.7L6912,342L6912,380L6864,380C6816,380,6720,380,6624,380C6528,380,6432,380,6336,380C6240,380,6144,380,6048,380C5952,380,5856,380,5760,380C5664,380,5568,380,5472,380C5376,380,5280,380,5184,380C5088,380,4992,380,4896,380C4800,380,4704,380,4608,380C4512,380,4416,380,4320,380C4224,380,4128,380,4032,380C3936,380,3840,380,3744,380C3648,380,3552,380,3456,380C3360,380,3264,380,3168,380C3072,380,2976,380,2880,380C2784,380,2688,380,2592,380C2496,380,2400,380,2304,380C2208,380,2112,380,2016,380C1920,380,1824,380,1728,380C1632,380,1536,380,1440,380C1344,380,1248,380,1152,380C1056,380,960,380,864,380C768,380,672,380,576,380C480,380,384,380,288,380C192,380,96,380,48,380L0,380Z"/></svg>